/* XPM */
static char *result[] = {
/* columns rows colors chars-per-pixel */
"128 128 81 1 ",
"  c #3C2D1E",
". c #352C25",
"X c #3C2E22",
"o c #352F2B",
"O c #3E3124",
"+ c #37312B",
"@ c #3D332B",
"# c #3D3731",
"$ c #44321F",
"% c #4A351E",
"& c #4F381F",
"* c #553B1F",
"= c #5A3F1F",
"- c #402F20",
"; c #443423",
": c #493623",
"> c #463826",
", c #4C3925",
"< c #44362A",
"1 c #493728",
"2 c #46392B",
"3 c #4B3C2B",
"4 c #543D24",
"5 c #5A3F22",
"6 c #523E2A",
"7 c #453B32",
"8 c #4B3E32",
"9 c #5E411F",
"0 c #60421F",
"q c #4F402E",
"w c #564026",
"e c #5D4324",
"r c #54412D",
"t c #5C452A",
"y c #5E482D",
"u c #4D4032",
"i c #4B4239",
"p c #544432",
"a c #594633",
"s c #574835",
"d c #5C4A35",
"f c #53473A",
"g c #54493B",
"h c #5D4D39",
"j c #5F503C",
"k c #624625",
"l c #644927",
"z c #6B4C26",
"x c #614729",
"c c #654A2B",
"v c #6A4E2C",
"b c #704F27",
"n c #704F28",
"m c #6F5027",
"M c #6D512E",
"N c #715127",
"B c #73542C",
"V c #78572C",
"C c #77582E",
"Z c #79592E",
"A c #634D33",
"S c #694F30",
"D c #614E39",
"F c #655136",
"G c #6D5231",
"H c #64513A",
"J c #6A553B",
"K c #6E593E",
"L c #725532",
"P c #785730",
"I c #755934",
"U c #7A5D35",
"Y c #715738",
"T c #755B39",
"R c #7A5E39",
"E c #7D6036",
"W c #7D6139",
"Q c #665542",
"! c #6B5740",
"~ c #81643B",
"^ c #83683D",
/* pixels */
"xw4cvcxxttvccAGFvGAvccFvSGGGvSv6,SvGGGAcSGGGYMMxGGGGGvycGGGGvttt;txAMcSGGSAMcScAccGMGGMGGGGGGFc:,MMSMYMGcvFGvGFvvGccccyvGcSGtcyt",
"v4cmLvPBPNmLBCCUBCZUPPUCBUUPLvyvB,BBBMNMBPMPZUBUUEZUUUCECBPUIGtcl,BPUCCUEUCCMCBCUCUEECZUUUCEPM,kv4LBPBCBvBmmBCCPMClImMBmBMBBBP6y",
"vtAxvMGYIGGGGGITTRYUIUIIIILGvrycvc,xxMYGvTIRUTGYIWTGUYUEGYILM,vGvcvGMYIPIMYGMIIGIGRGIGIIGUYUGtAvxG$SGLGGMMvGYIIIGGGMGGGGGGLSAGxx",
"MvMALvMBvBMmUPBPPPMCvUPBBMBVpPcLMcU6PYUmPBMLBUmmmPLUvBBBLGPPtGvvGAYcUPGUEBUCEEPUUPECPUPMPBUMrGvvGYU,PMPILLGPIMBLIULIPYUUIULIGGMv",
"LSLGeklkelkkklkceeveczxlecl4IPYLGvIL,kcxxclclllllkllllekexk$BLvLGGTB6lxcckvxvlccelcclleetll,NIvvGYUB;lllklekeleecllclcllxlcemGvM",
"LSIne,eclllvxelclxlxlclklx,cPBGIBvLNz,lxclvlcmceklcccvllxx:kNPGGGcImlylclllcllllckletlccll,lzUMMMGTml;McccclclkllxccvlMclctkmUFG",
"LcILke.cAFHFGAGGt>FFGJAFFQceIUGIBFIBec8JFGAGIGMcvMaAFGtAyskcBIvGLF~BvluyAcFGGavcv6GFGcADJgllNUGPBYUMtcjcSASGvrSLMcGGcAAFYOllBULL",
"vcILkk ccccacxvxxMrvFcMcvHckIUGIMvPzek<cccSAFl4cce5DvcxkxAetNRGvvGPPzl2ttvycYexeee3cvdccSqvezWGGLLUCkxsxxvcctlcvMctdvMMMF2llBUGI",
"PSUI9l>xxxxcAvvvSBUdLSMvcJlvIEYIMGPvlluAvvvvcvvxcxe6cvcxddkkVPcGGvIMlx6dcxtcvvvvxe56AxvcrsllVEGLPGRmlcJwMGMM4cBLNccrcIMMcOllCELI",
"ISPLkk>cvvcvcAcGvvvLvLcFvJlvIEGILvIMllaSGcvLGGMx5v4yxAxyxakcBUAGGvIBxkhxytvevyxvekxALxSxGdllBWFMGIWBtlGryMMLLeLvMxyAMMMyv>lkMEIL",
"IcPYee<ccSvGccAvBGSvcLSvxAclI~GLvGBvzlhvcMvGGLGLcxcSvxdecakkNPGSGGUBllhSLxcvvcyGvvcvLGFGMhMlNEGUIYRBccHceSMMGvxGvycGMMttS;lzCIGU",
"LGUTle>cx6GSPcSL5SccvS1vGAccTPGILcILlkdMx;GMYGSLAAxScS6txDlcBYGLMGRPkkaSt;AxcctxcvcvMG4GMHlvBUGMYGTBlcJMvO>vGvvcrcvGvGyeLOkkCEGM",
"LxEIee,v>ktLSSvcGLcSGYx;vFvmWWYLMvLMkedv;ctYSLLccexxGvLckdccNUSPvSRvlkdx;x5AxxcxGcLSGLM$MhllVIGIMLGPvkdcXvv3GLcGvLcvcGvxM;llCWGG",
"GcEYkk1>Lcx4LLSPvSvGSBtc>KcvRUMLcSMvkeh>MMMxYcvLSxSSvSvGypllVIGLGcUvkkDXScAtAcxvcvvYGIcI>dmMMUMSGMRMlcH;vGMcrMGGMvvAGGMLy>clCEMI",
"PvGIee+GkxeeeMPvccGvcP5cv<llREGGLcLllx3vcvMvcSLvLLAcvxexxpxlV~LLcvUBkk@SS5t5xAcGMvvGMMMMM.clBUGILGWBlx@MBMxccAMvMvAMceMecOllCESM",
"GGER5e+mvcexSLYBLLLScLxxv3clREMYvcMclc2GMMvvPISLLSJccxexv@xcBULLGSIGkk7Scxet5cLGvMcGvLcMx+llmEMGIGWBcl3BMGGMxGecGLSMCMMvSolkIEGM",
"MGUUex1;xMxtSvLGvGvvLGec3YllWELLGcGvvkhrcMcMIcGSSMMYvwvc;jMlBUGLLGWLeldrSxx5YcGMMStxtvMvOdxcNUSMPYUNlvF>MPLtGMMGLMMGvBGG;>clBWvM",
"IMLYke3v1cecvMGBLLPvmBvyGYMvEIGGIGLMvkHMtcSGSGcvMMMMGcMrvalcBUMGYvPMcldG6LvScvvGvcvcvvc;MdllVUcIGGIvclHc;MvGvGvBMcGLSxc4MXlkB~SB",
"IvIPll6Gx,AGvGGcLLGLGMtyGTvMYEYGIvUBllKYxrYMPvMxlvMMMG;StsclnPvLvvULleFeSrYLPGvccGvvMx$cMdlczEGGYGYlclFvwrGGGGMcxcvBcA4cv;kkB~cI",
"GvUPek,GGvvvGvAcPBMvGYGcMKcMLUFvGGUMlcFGcYcMMLcxveMSIcGMMdkkvGxYMcUPlljMLISTGG4cMvvcvvccMhMcBMSMGGPvvzJxxGxMGMexMxMGLcSvv;xzPUtv",
"IvIGek,GFMGvvrcvLvwUILMGvTlMIMGGMGUIlvHGFMvvBcvxLvMLMLcFSallvUvcFcWMclFFLLLLGccvvkwcMvcAvhccBRcvGGImvcAvGcGxBvxxvvkvvvcAc>xzBIcG",
"IcULkk;AYPGv;MGGIYGyPLcMyJlMIUYvYvUBzcHAMMGM4FcLMMGxMScvvselnWvLMvWCcvdMIISLxLLLLLLaBcvtcdllbIGLLGYvlcAAcvtvkvGvcGMtGMcSyOlzPIvM",
"IGUGkl;GSBv,xSGLMIcyMGMIG3clCYYvLAUBlchGGMGk4AvccMzwvxMIvpxcBUSBLcMMkldGIGvLxvMGMMAxvLGLvslcNRvLMGLvkkdcvxccwMMvccletxvcvOllBLAB",
"MMYPkw;MLG6xvxLkcvcGGLIMLYMMGPGvGcUBcchSMvvtxeMvvMkLSGcLLhtlVIYLIGEmktjLcLccMvBvMAcGGvvvGrlczIxLMvYBxlJvctxetxGScceweecccOkcBLGv",
"MMIIel;FcrAvtceLASGGIYGMGJMvBPGvMxIBcvHGGAAywxAOLASGvAcGGhtlBWLRMvUMlvhSAccAcGxvAcGGLcAcG8kcNISMLvGBvcDvvywvGwk5vtvvAccGA+vzNPAM",
"MSMCkltee*ekkekkkke090e99elcBGGvGSUmkc5e55444wwew4we4w45eeckBRGPMvEBkvkkk=5=kkxeklkxkkeetxvlNUFvLAGPvt4e5=eekke5elkeekte=lcxBUvv",
"GSIIk4=e9e99e9ekeleek09weeevBIFcGxPzlee5e55555e555**5555*ewxNUSSGvYmkekk0ke5ek=k5keee9ee9klemUccLGTBw5*=549ke=5eeeke==55=exwMUAv",
"CSIC<66rrrrrr66rrrrrryyrrqrrmPMGLcGv766r363666rrta3666r6qrrabULIGGIB3rrr6p6443rr6rpttrrtr3rrmYvIYvTB3666r6rr3rryryyawrrt566pBRvM",
"MMUteeww9wtwtexxl4&4w9wwexltAIcp:vLtxk54xwxx4cxcecxtwxtevccxFIvLMYWGyxylccxcccywxxxcttexkxvyMGx,;vYccxexeyeycyewexcxce4eeyxcxLxL",
"MFGYELIPGMMCUIUP~UEBSLIIWUUIPYrcc3GLIULUIIBUPUUPULPUvBLUY~UREYGLLMFPWEIIIUUIUGURU~~UEEIUWUUUPL3kt>GPEEUUIUMBUPUU~UEUYLMUIUWPRFcL",
"MycSSGGAcSScSFGKGGvGMcSvMGYMG,yxxc>vSSSvvSScSvccvcvSSYccvSGxvArGvAGGYGGGGKLGGGGGPYYGIMFGGGLvF3xexc,GLMLYYGGGcGYGGGGvvvvMcMFGSxtG",
"ALITYTRTYLGYTITWTUYYYTIYGYvG1wxwccr<AGYYSALTYYGYYKYFLGLKGAGYTYIdALYLIYTWTTLYTYTYTYTTWTYWGYTY3exMeAx3TYYYTYYYYYTYYYGYYYGYKTTTYGGJ",
"yMYLPGMIMILIYILYYYUYMLLMMMGLtwtGtct,vvGLLSMGLLSvMMvGGGMLGLLGMYItGGPYGGMLGIYGGGGGMGYLGYLYLYMYcyxeextrMMGYGLMIYIILMGGGGMLLGLGGLLGr",
"vALIYPIGIIIUYURUUEWWUIYIIILILrvctw3PIITLUvLUIILRUYRRRUWWIUYLIYvvGGYIPIPYUUUUIURUUUEWUWULPUUUIdxxetaPIEUBYPIPUUGMUWIUEEEYIEUECMwM",
"MSGcvvvvMlMMMCGMMMMMGMMlMcMvvYryM::vcMBBMMLLPLvBMBMMGLMILLBGvAyvMMGAMMmMMMGGLMMBLGBYGLUGPYIGvGrvyr:cMBMMGMMmMMBLMMMMMvMMGGMvvaGG",
"GGIGdhAhHhAHJFhHjJKFjFFHhHFh4Yvt;cLrssddaDdAadDDdhdaaaaDhddhtGMGLSWMsdaasdaDdAFhddadahdAjHHDmLcryMLwhdhaddAhhHhddhddyddhhsAhtIGv",
"BGUB,5xeekelklxeetllvkkwell:PUcMMMIB,kleeetetekkxekvcllckle,VPGGGLEM$eekkllveleltellcvlclle6BCcMvILB$klklleeelwkeecleellllk,CILM",
"LYIN0,kelekellle9keee9eeee;lmUvvMvTNl;kekekkeekkkkleklkckk,eBUGGIGEZc;llllklzlecleeekzlllk4zBUGBGUIvv:keewekkkkwlleleeelkkwkCIMM",
"LYUCke1xcMSMcclOrcccckyvlr4ePUcMGGIVeeqw4ccxvel ;mvvvvccc3leVUMGMMEClk8tvvvlcec-wvvMctxxysllBEMLGUUmlthctwtt5xm;$xMMMAcyx<klCUMG",
"YMEBkl>vMGcvMl;vvxwGxAcvtsexMUFLLGWvvk>yMMcMcv-cl;xxMGccMskkCWvMMSIMlxqGvMAvcc;LywSvMdvvxallBWMLGWEBecavvvvtGxOcx MvcGSMt>elCWGI",
"IGUBzlqGMvIcSOcMvv4tAvMMch*eMPGBGvUBxxsccMMyS:cMlM;tcvcGv>klBRSvMSWIlepLLMGvc;MvlGqcccGGMscvNEGLGEUMkcFcMMcccXxtxS<vyMvvv2elNEvL",
"IYTLzc,vGGGmycLYLLG;MBGvcFleMUMYMGUPlkdvvGMMdSMILGM>AvccFalkVWGIGMPLllpSLMvMOGvLGGCrMMIGBHllZPGMIYUBlljxMcMS6ccvMvv>cAvGA<klZWGP",
"MMWPkl3cvLMIBcewSxecGGMvcFelIEMGLMUBkkatvcGGMlccGLcvvcGcvdzvVMMLMGLClMjMMGPvMcxcMeMGSMGCMHllvPGMGRTClMhcMMMcvketvctvvvvcM>ekMWGI",
"UGULll3GGGMLGmkvBAScLBMxthevMUvIGvIPllHvcvSMMMcCGAcvMvSMvavczLMLLGUMlldGGGGUBLkMMcMMSGCMMHvlNMGGGRRBccAccGvMvcecvcxvxxGAt3lkmWGG",
"PLWIzl3vMAGLPMMMlvxLcGtSxhllPIGGGMWZkcHGvrGMMcBMLGMcvG3vGqlkBRvGMGUPelhMMdMMCMBMSScMLByMvjlMNWGIGTYZlvHISdGLGvcmyvxcxGtcv,ekVEGU",
"ILUIllqvdGGLIGvMvMxxGtccvHlcBUGGIcECkcdxrxcIMIGGxveGLML>csxeNGGGxGWMllpMyGIYLIMMMvvSGMSyMJlcCIGMLYTPlljvrMxMGvvGvvccStSry>kkZWGI",
"IGWUlzqrMMcxYMvPIcvvlxvc3FlvCEGIGvWBklsrvtctYvPMLMxvcMMM,allzPMGGvUBkld3MvGMLLMMMSMBzMtMrHlzCUGBLIWUvzFyCMvMGGGMGvGG5xw4O3elC^GU",
"UGEUecOGvMecMGvIvLLcvIclGslzIWILGMEGle2xvcxMMGLvMMMMvMMcM@lcVUGLMcUBvk8vCGMSLIUMGMMMMMMeM8vvNWGMLIRUMlgGMMMMMLBLMGAwkckxv.eeCWLI",
"UYWIllqSMvvLLLLILPcxvxcc4dvzCWYCGGUBll3kcvvBvvIcGBvMcvvBMOllmUGvGvUBcluGMLcMMIIGBIGvcmLvv<ccBWGIITECzlaMMGvMlvMLBGveeexxy<lkVWLU",
"UYWEllrcvvcmvMvILGMMlvGecKlvPEGIIGRPcldccMvvvLvLBSvvcvMGraclMEMMIxULlldxmMxcBMMLYGMYkMvz,HlvCEGMYIWMccFtMMMlvLGPGGvvvcexp<ekBUGI",
"ULELllqLxvnvGLvGGMIMIMxeGHlvUEGIGMUMcvdvcklvcvvGcGMvMxMvGsllBEMLMvUPllDcyvlvvMvYGGYLIMmyvjzMNESUCTWIlvFGlxvvvMvLGvAvvxkre3ekBWLL",
"ULWIlxqcLcMvMcGcvYMIMMctMJcmZEGYLGWPzxdGvtMvMvLcvGvGGMtGMrkemUcGIGIMleaGMxLBvSSvMIMLGPAvxHllCElIIYEUvlhMvcGvvBvvcvcccGwvx3klBWvL",
"ULWIlzqMcLMLvGcvvxMGMIMMvKcvUEMUIFEPllrGtvcMvGvMGmYcMGGMMpleNUvILMEMklsctBMGcYcvvvLGBSIcGHcMNESUBIWUzlacyGGvxGvvvxGwvcvLS1eemUvY",
"IG~IlcrGMGLGGcxvMMcGMMGCSKlvZEFYGcEUkcpyxvMvvMlcMGGGvvLLMdlcBUSvYcEBlescMLBGISvvLPGIGLIBMJzvmESBYGWClMsyGMMcLLvvvMcvAcxcc3eeBUvP",
"UG~PlerMLMGIdxexcMylIMMELKvvE~SUCvPPkx3vLvMMGrMxcyvvMMMMBavcBPvLUMIMlkpvLvvGpcNcLL6xGcLLGHclNPvIYIEGMzaGMMvGcvLMMxxycvcxS3eemWSB",
"UGEUlx3LMvLGv6vvMyyGGMMMMHlmVUvUGGUCec3GMvvFLGAelvcxvFvBMavzBWSYMxUVlksGcGvSc4GvcAcvGLLvGjMcVUcYIYEPlcuMMvMGGvcvLwteccckc>eeCUvM",
"UMUI0zqMMvvSMM,BSvMGGMGvvQvzZWMUMGWCel3ccSccLMvylwMxcvGvGscvb~vPMxImlcdcvLnSBk6ScLvvBGvnvpvvCUvMEGWCcMsMvccvvMxxSccxxxccv2ekBUMM",
"YGEckk>@>>>21<<<2333333383vlEWMLMMEMtk<><22>1333>2<1><<<2<llBUvIMcLvexO;;<1111<;1:1122<6<8zcNWcMYIEMyl3><><1<1>:<<<;<;<;<@eeNEML",
"IGUMe,eee545kee5e9eee95=e5wvBWGPGcUze4ke5eeek=k555559**eeewvN~cIvcEmeeklkkllk5k00kkkczkkektcNRvGLIECcxlleee9kekkeee55545ee$eBIvM",
"PMEM*llek=5kee=599e9k9eek0ecCWGLMvUm*=9ek5e5e9k0k*e5e*e*9=94BRSGvcUmwek0lk0lk0klllklllklzlkxVUcMGIWMezlek9kkeklkkelw555ee*9,mYvM",
"pGYyMILGBGMPYGLPUTUIYUPYPUYPFUMGMvIFLMSvvLYMUITILPUPYPLULGGIGIS<;cP6GIIUPIGYLULUUUIPWURUUIIYGMvMGGUAIMYMLIvYUUIPvxvcMLvvBGvMwUM3",
"c>vYUEECPUUIUU~EUWE^EWE~~WWPUFyMGctPCLIIUPUPLUP~IPEWEWUYULPILA;et3,LEEIUUUUPBLUUU~U^~~UUUEEWIAvGIGtUUEUEUUUUEWRW~BLPLPGIPUPYMw;y",
"xc3GSSGScvvGvvGYGYULTIYUYYPGMxtMM6xxvccccxvcvcMLGIGSGGMvLvGvx;4cxx:vMGYGGGGvASnYGIIIIIYIGGYLGvrML6xcMGMGLLGYGYIIYLGMLGGMGYYvc;we",
"ecc>cMILLGMGvGLGMUMIGIIYIUURUIIy&MLMMMCLLLBYLGMvGLMMGMMMMGYv>wextcc$IGPPLGLYBnvvLIIYILLIUPIlUUB4*vLMmMMILLLULLPMLPMMMMGMMLPM wxx",
"eve3MLGLPLLLILLYGLMIIGIIIIIIIGL6rMIILIYPIGBYLGLSGGvSMMvLvvMv>4telcx3MMMvGYGGLLcvLIYLIYUILYULLIMG;LYPLGYBLGGGUUIILYMvGGGMMMGB;xex",
"cc;vMccGSSvvGGLLMSMYGMGGYLTTLGySm,SGGGMGGvcGcvxScvSSvGLMGvvvv;tvvv;vvcvvLcvGvSGGMGvvvMMMGGYLIMyMM:LcvSMMMGMMYMGPGMcvMGMMGMGLv;wx",
"c;dvYLITITUIURUIWYLUTYUYIIRUGyvGYx,MYULTIYGTUUILIUUUTLPYIYGLL4;kcO4LYLUTIGURUITRW~WWRTWTRIULGFcImG,LGIYLILIIWWWUWYIUYPITUWITMt>c",
"XvIwBBPNPBUBCPVBmMBVCCLNnLBZAUcvmMP4MmBNBBBBBPVVBLcBPNvzBnMm4Uv>;GPtMmmmNBvnBVBVPPPBZVCCVVBvMUcILGI,LBBBBBmCUZZUUPCZBzzmBMNB,Iv:",
"PMUN1kellkklcclkeeelkllmcnv5BPFBGMEm%klkkkklzz5lllllckeekke;mLvMBGIv%xeeexkexcklkewkklzckll,VUcGLTRN:lckelklltlekzllleeleek$VISM",
"YMLcz4ckcclllckltk9llccvvcwlLUMLYMWCk:elkklccxcvllcllcllcx;lmUGvMYUNe;xekxelckxkkkkllclxcc6kBBcMIIRNl;zktxlklllklevcleexllwlVPMv",
"PIUMll#shFAJDJJhyhHJhAhDDgvvPEvLMMEmlki8sDADJJAD<JSJdhdJhieeCIvMLGLNkkiHhJhDKJFsdAJDaDhhhgvcCEMPLYUvxcidshAsdAFF,ddhhssdsiklBIMM",
"LYPBlk3xvGrtvcpxyyMMLGvASazlBLvLGSUMxk8xvcGLLSwcS;cMGGvMca9eBUMIIMLvllpvvMvcvvrxcSLvvAvcMHccBWvYLLPnlcscMAcctceMcr4vxcMMcqleCECM",
"IYWvlk,cvvcwG6nclltMcMMMIdleBUALLGUBxl3ecGLcGxlckx1kScGMMdelmUGLPYUCkkavvvvyvpx5elScSMMLvDkvBWGvIIIBevaMvMGcSecvklt6tvcMGselNRYM",
"UMUIll2SxLMvrMvvvMvtvMMxGrtvmMvIIGTBlvsSMMvvAGGvcnvrvGPMMheemEGIIGIBelaAvGvk>evvvMvvvvvvSdllCWMIPAUVezaMMGGMeccvMcv1vxMcMrekNPGB",
"IGECzl3cvcvvvxkvcvzlvGMxytMxmUvIGvRBlcDMGcvLvNcBcvcxMMGMthlzNWvPYGWPkvdvvccvxcexxccvvLvcvDlcCEMPLIUBllHMGMMMczxxlvcAvcMMAsllNUGB",
"CGEIlerMcLvvvBxcMvMMBMGxMallBMGLBMUmllhvcvGvvvcvcxAcvvvdMhllN~YLUGWNklqMcGtLLcxxlczvclBvvKlvNEMILGIBlvhMMGxvvcvvcctvvMzyMdllBIcG",
"EGWUlvaMvwLLcvvvvvMGMv3cMAxlvIMULSILlldvvdcLLMvxASvccL>vGHclCUGIUGEBkldvMdYvvSvzvvvvMMcLL!lvNUGIYGUCczHMvyGBMMmGvAGvvc1cvdvcZWvS",
"IG^PzlrvAcSScLcvMvLccMv,tAMlmULLLvUmllDcyvSScvvcxSvLBvB;lHclCUMYYMECvlavtvcGvLBvlvcLMcv3MHlcmUMMBYLBkcHGtSSGMMMcGMMGvBv1cazlVPvB",
"MGEPllqdLcv5GScBBGmvkvM5>FllBUFMPGUBlxDrvcG5GvGBvcvvkvGM;pzlVUMLPGWCkldtMvGevMGvLcvvlvMx>AlvC~MMIGUCllJrGMckGGMMGMxMevcv;dzlBIvG",
"IGEUll2MMLnccLGLLvvcvMxee7vxPUGIGcUnlksSMvexcGLMcGMkvLMBP#elBEvIIG~Ull7GMcccvLMBMPNvlMv5M@czCESIYIUPlzpMxMMvAGIMLBBllxcGL<vlBWvM",
"UG^Plm3BlMMMMMMILLMmtClcvutlZEGBGGRvklaMMexvMPYcvLMxMLmLI<llBWMIYGWClchNBxvcvvYLMLBLcnScM@lzVWMIIGWClcaMMvBvxLGGMMMmlMeMM8llVUvB",
"UGWUzlrtMlCMMSMILMGvlMSetsllU~GIIvUvkvdkvcvlFLGBMGMMvMvM1alkCWGPIIWBlljxnvLkvcMBPLMLlcLvrFlcV^cIYGWPclHvBctxMcvPPYMMMMec>alzCPGI",
"EG^UkkrMemlvcxSMLvMMCvywcFMlPWSIBcEBlldGllvSMMMYMMMGMcM>MtzlCWvIMMEClvdGvlvvvLBLBcGvvAGxMdlkZEMLUGUCzvhGMvkMcGMMIMLLzlx,cavlmWGI",
"UG^MkvaMMtlcMMBeGIMMGMwwyFtlZWcUGcUMllhxxccvMBYcMMLMPM;cvhvlCWvIUGWlllhvcxckvvLvxGvLvByGMrlMC~MUYLRVlldvvkGkcvGlMMcMMB3exsllCWvI",
"IGWPlcsMMMcyMMMvMvYIMMyvIhlmCUvGIGIzlxdvktccMGlcMMMBMvMBvhvlVEGUYIWPlldkcvcvcGvvMMGSBvvMcdlcBEMMUUWBcldGxceccMvcMMzIvMmycpclBISM",
"EGEIzcqxMccvmMkMMMcGMLvvMaymMEvCIMWBelscvckcMlMMMBlvIvGLSsllVWcLPGWBlkdkcvvcMkklvLtGGMMcMFcmCEGUYMWCzeAvMcccMclllMMCMGGMcpzlmEGM",
"UGWCczqMMxcBtMMLGCM,MMMlMHtlZCSMLcRMezavcMGcrAGMMvM>vvGGMdczBPGIYGUPzkALvcxLwGcMBvcxPvLlMhvzZESIYGWPlcASvvxv,MIMMMM:McBMMpmlBESI",
"UGWIlvqMMMcFcAcBMBwGGvMMMdllCUcIIMWmkldvcvmlttLlGM;GBMBGGdlcBIGGIMUBkcdGLGvcvrxvMkcvSGBcMhMMmEGUIGWCvxhLvSccMrMMMMOlMvGIM1llCEGM",
"YGWPlcqIGMeGvMrMM;xcMxvSSslcPWvIUvUBkxsvvBvMAGrcc1xAGMIMMdklBGGLCGWUllaMvvvAcGrGlxMMMGvcAhccVUGPMvTClkhvMStcGMytM;vcvyLGvulzCEGL",
"IGPBle@33r3ausp8<rrq;3u332ccBUvMYMEMlk73pasaadas<636r3r3q7lkBEvGGLPVlki8prassda7rupasr3qr7lMCRMLGGEPcl72qrqrrur<@rr3qpqqu#veNEvL",
"IGUBl1kkxekckleleeelcekexlekVPvMGMUBl6lkkkkclckcklclcckkcl$vBUGBGGUVz;czlleelekeleltelxlvlevBUvPUGENc4clleeeltlllxlkcllkllwlVUGL",
"IGUz%kkclclkkellelllxeelkMkrNIGLGGPm&kcxweeklkllcllcleklllewNUGLGGIm%kkllkxlklllellllklklllyNIGLYMUC4vceteeelekecclcllxlelewzIvM",
"IvIxzzBzNNNNVNCVBCmZVNBVNBVNcIv:;cPczzNzzzNBVNZNVNVBVzbNBVmBlUGLPvUvvNzvmBNvBVZBZCCCZZBBNVnBkPv-;MPvNBzzzBmNNMNCNBBNBmmBNVBz6Evv",
"LvwIUWUURWYGUIIPUWEPUWIIIRBYYS3cxOxYYWUPPYGIURUUUUUIPYPLEERRUKvGGctTUURYLLGPLUIIUEWUWEUUUUTBYG,xx;tLPWUCIILUUPUUPUYUPIIYWEEWIAxM",
"B6cAGGYYYGMvvGGTTWTWLRWTRUMYG>xc5x;GMGMGLYIIRUTRTTUILYYTIUIRTGvYIrycYGGGGGGYLRUUUUGWYWWWIRRIL,xcxx;GYGGGGYMMMIUYLIBUIRYUYRGRUGyM",
"tYPIBLIPYILMGLLLGGGMPGLGLPLL>ekctey3GMMMILMYIGIMLLGGMLBGLYMLPLMw:BGBMMLPILLIILGYIMMLMMGIGGLI;wxxxvc3MLGLMGMGMMcScMSvMGBGGMITPLMt",
"yBILMMvLYMMMMLBGGLYMIMMBGYGLOxvlccw;LMGBMGMGGLGMLMMMMMLBMMMPIGvwtvBLPMMMLGGvLMGLMMGMMMMMMLBL;yylxcw;vvSvvcvvvvMMvGvvvMMvMMvBMvc*",
"GyGxMGvGMvccvMMGvGMMGMcMMMMMM3vccl;MvvccvcvLMMGvMxlcxcMMGGGLvvrvMdccccMlvvvcccvcSSGGcMcMMvGGM,eMx,>ccvvccccvSLMckxxcvvcvMccScv6c",
"GAAcYLLYIYLYUIIRRWWTWYIWTYUUGvrGt;,GvTYIIGURWWWEYYIIUYIWUUUUG6cGLvrvGIPYRRUTIIURWWWUWWTWRUTIMvrcS,6BMPGGIUUWRRWUITIYITMUULIUG4cv",
"MMPFVmzNNzmVzvNBcmNCBMmBmCBmyIv,;cIeBNzVmCPPBCCBNCmmvmBmBNVBrUvBMcL6mmzlvnnNznnBCMmBBmmmMmVBtIv3;MC,NblvvBmBBBMvvNNbNzzzvNBBwPcM",
"PBRP%klkeeelkekkeklkllcleee:CLvMcMYM$lelelklllllk9eelkkkekk$ZGvMLSUB$ekek=kklllklekzlkklell$mUxMGLPM:5ekeee9kkce5ee=eekkekl%BLxn",
"IGYBe:eewe*klklxecleelxckl$lBIvGMMPmk;lyltllezlxle4ekkkkte$kCIGLIGUve$kekk5kkckleekecxl9lc:zBCcMLYRve$keekkeklexekeweeleek;lBLSI",
"MGRBkeo13p3pr66@.r3rq3rO;2kkBPGYIcIzk9@3qraqrrp3.q3p3q,1>7xlVUSMIvRBee@up3r6366XOrqrq1>;<#lkBEvGILRmce@2>p23,111O>;>>2>> oeevTvP",
"UMIMkeOvvcvcLxXkvOMMccccFd4lLRvBIMUClk@ccGAcMvyxc;vxtvtvxullNULPYGUN5eqcxxcvSxXke>MvAcvvvhllMEvMLLWNltpvMAcMMx4xx;vvccMtc3=ebUvI",
"IMGMkl;MMMccv lkklOMtvvMchllmUAPIGUBelqvvMMxSekkvlOecvxcvselVEcMPMEBeercSxcceXxccvwcccCGvjllBCcMPLUmelrvvcxckykxec;xtvcvvgkezUGP",
"McBckl>MMccv-ekxeeeqcvMvMFeeLLGPGMIBel2ccSvBAxxclky;cxvLMfkkmEcILvPvleucxxxvXxkxtle:McMMSQelmUMGGYUBkkucvvGvtcceetc>xcMcGullVLSG",
"McvGel3ccMMvvlccvllvMcMvcHelVEGGGSCMwe>xvxvvvcvvvvlvccGcxplcCUMMGMUMekrvcccSccxxlllvMMMMcHlcMUvLGMUBelpxcGMGckkcxvcexMMcaselvRGP",
"PvMLll>xxtvcllkvvcMvMcMtvHtlP~IGMSEBkkrMeLvLcBvMcvvvxccecdlcBEGIYcUN9w3yxcxxccvxMeMMvcMvMFklNWMMkGWBkedMcIMMMcMkcxMlxMvythllnUMG",
"GvGMllOSM,cv4cckzvvMMctcvJclZUYIIGWUlk3vcrUGMvvLGSxxccrcxdklVUMIGvPGe=axS6cxxevvvvvcLMtvSFllBESLMGRZexhxtyMMGMMMcvkMvc3ccAkkBEvP",
"GvPLzk>MytxccxkvMvvcczGySHllmUGBIvWPkx2vrwcvMMvvvccvvcvrxallVUMILAPBel3x4cccecxSMvcMLkcyMHtlmUMBYGWBevdGrxMGvBMvvcvcc5M6GHvzNPGG",
"MvMLek;yMveeccALvGvveccMrdlcmUMGMvWPll36cxSxGxMGGvcGkvcc6alcVPvYIcELexr1vLcxcAvGvvMGkcylrhtevEMMGvEBkla,MMGlGGMGLvcvelcx3dclBIMI",
"IGPG9kOMmvwvccGMvvcMcMcMMhecPUGGLY~Pzl7SexvccLMvMLMcvmvvS8zcVUGLGcUB5k@MxccxxxPvvBMlvcxevpkemEMULMUPkl2GMBMctLBMMMvtccevG2ckNEcG",
"YvILkcOGclkvvMMGvGvvMMMcc>ckU~GIMGWBlxqcexvxMtMMIGMcMclcl@xzCWSGUvWBee3xvvcxecPSMMMMMMlMv#llBRGYGMEBlcrvcBvLxvBLBBvxvwMvc@llBWvI",
"YGPPzx>tBcxwvvMGMxcLecke,HllZEIILLWUlldxvkcccvvMMmMBlMlc,jkcBWMPPvULkeprMvkxcSGLGMMLeSlM>HlkNWMPLGUBzvhxccvcvcvYLMMMvvev;hklNWxL",
"UMWMkl;yellcvMMPSvMSMcc,tFccZEMLMGELlkavcxxBPGMLMMMMBcFwxFllmWvGLGWBlkpvtxlcLvMvLGMGccc,cHclCUlILMWBlzavcBvcvvvGGvMcckx1cdccPRcv",
"IG~Bkl;vvkMLMcGevSvvGM6lxFvzCWGIvGWBlk1GvkvSvGMBlIIGBMtMMdelBUvLIGIPkeuwvwvLcSSSlGCMMMwSxKzcNLvLGGEBlvqvv5MMMxvvvMvGvm6ecsllBIcB",
"ULWMkl:eMBMLvGecBxGGBLMMMdlxPWGUMvRPklrGvvxvGvlMCCMGMGMMvdtkNPGMPGEBee3GeccLPvccvvGMMeMvGKczmUMBGGWmvvawcSvvcMBGMvMcMvvcSrw9NExI",
"IGUPlz;vMLIGMeccv5xSvGcxwaxlCEGIMGUBltrvvkxvMvlccxxGMMIMSHkecPcGGGEBek3vxGGcSvvclltllvMMvHxlCUvIIMWPzlrvvcBvczxecMcMvvBvvaeevPMI",
"PIWLle;LMYMGwGvyxke4vvGvcFclCIGYMMUBkercvvvvevvMMcM3vcBlMFlebUSnYMEBee,lcccGrlvMvvvtvvMGGKllNIcIYMUmclavccccwcccMMv>vMveepeemIlI",
"IMWGkw<MBBYLcycGxx:tMvcGSAllCPGIGGWCeluMvvGycxclMeOcMcGMMsllvISLMMEBee1xLvGvvdvvvAcccGMGLHelBPxLMvWBzxackGvcewMyMM$cGMvcS2eeMMML",
"GMEI9e>LMMMGGvavk>cxxvcvcHleVIcGGGPPecuttGtMGctec;vMMycvvskezUcGLMUBeepGvccvvArvAxGYSSMMSHlcVIvMLMRNclrxtvycvAycM>GMcvGcSqeeMEvG",
"LGUMl*+OO;>3>>1>X;1131,1><clBIvLBGEBel@>>116pap1@r33q>32<@exzRxLGvELkx+313163sp<r3rrq>OO<2lcBUvcMvWmcv731333rspq2pqqq3u3q7eemClG",
"LGECk;llkkkkclk5ewwlkkkkxeweBIvGMYUNe:leekee5wllekklkkxeex4kzIcvMvUPe;eeekelllelkklelMevxcwcNUvvvvWNl4xceekleevvelllxceetl&emEMI",
"IMEI%lckkzkcckek5ckelclctlewBUvLLAPv&ee9eexteexxkteleeee5ee5VUGLLGUN$lkx5txxcllcl9lvllllkkcwBIxMMGYz4lvleelcelxlkylltllekeewCEGM",
"yMPSNNNNnBBnnccnvBBBBvbBBBBNeWGLBcI4BNNBmMBZzBVPZZPBNBMNnnzn4Iv3;vPABBZBMBBNmCPCVBCBZBBNBNBN$UeMPxIkBBZBMmBCCUUUCCUCUCZPCCCB9Yc;",
"cttUURRWUvLLPUPLBRRRUYURPRWUIycGGc4IUIUWRTIELLUIWR~WWUYILIUIL4:cc:vUUUWWUIWUUWLUUIWUEWTIPUPTUryBLerLPUEUEIIWUPU^EEWWWWUUEEUILt;e",
"vxdGGGYIYGLSSSLSLSLIIURIGYTYIGyPP1SSYGGGUFGGGSSTUIURRPULIIUMM;wcve>SIYUTUYUYYUTULRITIIUUYITYPGwvvrGGGGYLGGSYYUIWYEEEEEUUPEULU$ec",
"yvcrMvBYGLSnLSLvvvvSYIIGLGLGUYv6-BLYLILYLPvYGvLLGLGLGSGGMLSvXxxxecx6GGLUYIYILGMGLGMLIYIMLGGBMYLr,vMLILMLGMCMIMMIMYLIMIYGYGICOtyc"
};
