/* XPM */
static char *_af8ccfa111f4debaab30f817eb579a1HDKJylt1bLYXyO9P[] = {
/* columns rows colors chars-per-pixel */
"128 128 71 1 ",
"  c #16130F",
". c #19140F",
"X c #171511",
"o c #1B1613",
"O c #1E1915",
"+ c #1F1B18",
"@ c #211B17",
"# c #221D19",
"$ c #242116",
"% c #292216",
"& c #26211C",
"* c #2B251E",
"= c #2E281F",
"- c #30271F",
"; c #30291F",
": c #2C2621",
"> c #2E2922",
", c #302721",
"< c #332C24",
"1 c #382F26",
"2 c #362F28",
"3 c #382F28",
"4 c #373027",
"5 c #393127",
"6 c #373028",
"7 c #3A3228",
"8 c #3B332B",
"9 c #3C3328",
"0 c #3C3329",
"q c #3B342A",
"w c #3D342B",
"e c #3E342A",
"r c #3F372D",
"t c #3F382B",
"y c #3F382D",
"u c #40352B",
"i c #40362C",
"p c #42382E",
"a c #433B2F",
"s c #453B2F",
"d c #433B30",
"f c #453A31",
"g c #473E32",
"h c #473F34",
"j c #483F33",
"k c #493F33",
"l c #474034",
"z c #484033",
"x c #4B4134",
"c c #4B4235",
"v c #4C4137",
"b c #4E4437",
"n c #4F4438",
"m c #504637",
"M c #52473A",
"N c #52483B",
"B c #54493B",
"V c #544A3C",
"C c #554B3E",
"Z c #594E3F",
"A c #564C40",
"S c #594F40",
"D c #5B4F42",
"F c #5C5043",
"G c #5C5243",
"H c #5E5445",
"J c #615646",
"K c #625748",
"L c #64584A",
"P c #6A5E4E",
"I c #6B6050",
/* pixels */
"#OO#&##+OOO@##&######@#@@&######@#o@O#@OO+O@@oO.#####OOO####@###@##&#@@##O+#O@@Ooo@O#@@@#######@##@@@#######@#+O@#O@@@O@#OO@oO@O",
"@@#57<eep0pgggpgeugk,<75<gkfrepeteeee0077e<7<71e<<*@@#>g4,,<<,<70qppp07epp0<,<*,@O@#71epre7pp707ekp7gee7<r5<<4<1<7,r5,7<4<<<<7O@",
"O#7e<>gMSbcgg5<eHFqpievgge115pge7e54,ek7<vncik,,,pdO#*fMq>>>>*0NcvigphMsg<00eBI<@o#,gfbb<MkCgdg<*<*<7ie55<*><<<7><<5ppnzeii<<e#O",
"#<7<<*5p5ee4r7<777<5,ie0prgpeeei77pprec7u5<1ep5<<<,@O<e7<>>,>>70vi77re7ic7diMkpu<@&5cN,*eei6,<,<<rp77457<<>>>>>>,<<557iprr5r7,>O",
"#<1<<<ee7p47<7<r<,r,7e07<7<7<<fe77577<77771550ee7,,@#ee5<<,*<>,7rp7irrdue<p7pepi0#@pg<>*,5<6<,,<rep7e74<,<*>><>><<7r<7eeq<57<*>#",
"@<<,>>,p0pif0<ep57e757<<<7<<<,5e57,5055<5<7<1r5<,<<##dee<<1<,,<,e,75pp7pe55y4050f@@<7epr<4,5,7<<77r7<<7574<4<,,,>>70eepg<re*=55@",
"@*<<,,,<5ep071rr<77r51<117<,,<1<541r<7,07e5eee<,<5<O#pei<e70<,=,7rc7frr<per7ere17O@<eee0p77e577p575<,27<4<77<,<,>>476q4qg4e<<<r#",
"O*<<<<,<45<<,77>7rerq,4<<0<>,>,6<1<<>,><<<que5*<5<&@#rr17c<4<7<,<e<pge7<<e4eg<06>@O5i<57eee,<cd7077e><<,><<77<,<<,<<q>>>7he,><<#",
"#><<,e0<,,,,<,,<<0ge4,,<<4<<>,647e<,<,<><<<,,<<,<<>@&r<<77470<*2<<<>>7#*><,<p77<>O@<<44,<570pgrru<e<77r,57<5,<<5<,<,,4>>>4q<<,<#",
"#<>*,5e50e,<,<,7<<p7>,><,<,<*,>r7>,,;>*<e<<<474<<r>@&77<5<<q<<,<<,,,<*,**#,*<<*>#O#<y,4<r77epk<<7pp7<70<,<<55,75<<<5,,4>>:>>,q>O",
"#&&&#&,<07<<,<<46r7,*,<<*>>*:,>,,,*,7,<505,***<eee>#&<<<77<<<,<,,04<<<<<7*>>>*&:#@#>p77e7qp0yp<q77pei7e5,14,7,<1<4<<,<>:>>*>5,>#",
"#<<>:##<<e7<q,7e,r<<,>>>,*<<,*,5,<774,5e<4,<<,><>:###70<57<7<*<<*7r0<<<<,<<*:*####@*><e70e<7q<<<6<777r0754<<<<<,<:&<<q<&<****,,O",
"+#q>**&&<<<<7<<<7i27<<,>>>,<<<<<<<47<,<<<<,<,<,>*#OO*>7e<577<,,<*50,<<62e<>:>:*&#@#><<,<57,,<<<7<6>de<<7<,<<75,7<<:<<<<<<>>>><,@",
"O>6>>>:*>1<*5<50<7<46,<>>,>,<>,<<q<7<,<<555<<>>>>#&#*,445,<<5,54<<7<<<r<r2<><>*&#@#,rr<re<55,<<><<7>77qr<45<5777<,6egpqr<><:><>@",
"@<*>:><<*&<,,<5<*,<<><><>>*><<<7r5<*74<<<71<<,<,>>*#&>*,<<<,157<=<7<<6<er<4><<#*&@O<<747<*>><<47<7r<<r7ipq<<,45<5*<pq<q,><<><,*O",
"#2<2*><<<>*,777<4<5<,<<,,>,,7e<6<,>><7,007e5e<>,,><@@**><<<,,,<<<7<<<5<<<,<<>*6d&@O77p<<>>,>>,<<<<7570ep7r74>,*>7<>ri17<>>>><<<O",
"@2,<>><2,6<**<r<,<<<5<<<>,,<gp754,>*e,<<<5<<<>>*><7##*<,,7r<,<777r7q7e<,<*,>6<c7<#O<<<<,*>>>>,<<7754<i7>*<>&>>>>,>,<<575,1<>,7>O",
"#>&>>><7<,,>>&<<,<<,,<7<<,477<<<<r><e><7<<<<<<>*,<2@+<6q<<<<<<55e,,yy7<7<76<><<7>O@<6<,<>>>*<,,<<43,7<<<*<<>>>&><><e<<<7<><*<e<O",
"@&:>>,<r<<<<<<*,<<<<<,<,<<1e<<<>6,<22>q7,<7<<><>,>7@#<7<><5<,,<<<777e<<>7q67r2>,>@#<7,,,>>>,>57<77<,6<,<*2><>>>**><e<<7<5<*<<s>#",
"O&>,*,<er7<,,<<*,,>>,4<,,<<r,<>&><7<5<<6>6>>,,<><*,O#*,14<<,<*>r7007<<4<7q<r7<**>O@<<7<,><6<<<<,,<7<7<<>>*****&***,<7<555e7<<,#O",
"##***>,ip<<>*<>>>*&7<<,<,<,r6><<<<,q57<62,<>,<<>7>>#O<><<,<<*,,*<7r7ee677r7q<<>>,oo:<<<<>,<<77><<<<<pe><<>,*,>*>*>*>,<,<5p,<<>&O",
"Oo:*>>,pi7,**>>>>:&>4<,<,<>5<<6>7,2<<,<<<,<<<<:<:&+@#&*<<<,<*<>>><q7q74>y<<<>><>,@O*,>,**,<,<<q3<<<><776,,*>,,>**<,><<,<<<,<<*#O",
"@+O#&>:>*>:**>>:&#OO**>2<*#&&&*:2<6<><<<,,>>*&>&o@OO#o&2,>,>>>&&>=&*>,>*,*,7>>>>OO@@&><<><<74r<<,,>>>>>*********&&&#*#:*>>>>:OOO",
"oOO@OOOO@#@O@O@ooOooOOOoOOO#OOOo@oOOOOOoOO#@OoOOOO@#@#@###OOOO#OO#OoooOOooOoO@#OOOO@##O@#OOOoOo#OO@@OO#@@oOoooO@oOoooooooooOOO#O",
"O##@@##@O@@OOooOOO#O&#@OOO#@@OOOOO@@##@####@+@#O##@#@#O###O###@&O@OOO#@@O@@@O#oO@#@##@#@@@O###&##OO#&#@@#@O@#oOoOoOO@OO#OO@+OOO@",
"<7<segsirrgvnhikg<,e5<&OOoO@7<7gnAC7<r**6r<76rppe<ie1rq7epieecvggcM@O###i<<7gvc77peeper7ppp51rkdgeer*#O##<5eee<<4747<spcekeepye7",
"sfgMkne57epchcMJKC0Mbg*OO@7gfgpeMgndCp,<ciph77snCebvsgsc<p7r5ke,srpgO@#cpsd1fBbckCyMgb5,<FHeeipeLCCg*@OO7gvMc*>>*><>7cck7kbpgfre",
"pp775<,>><,<e50gee5177iOOopMcp<rp,&*>7*<***<*>>>77<7<e5<77<p7rii<7ei##@p0<,,<,7*<<75spei<><<7vnFC<d0*#O>7<00,><2<4<<>,77<,7<rcsp",
"pf74<,*:&,<><<q77<*,,,7O@#spr7<<<4<*>,>:<*>>*<>>*66<<r7<r5<7rri74zkk##@3per727<>=<ue5,<7>>>:dq<57<i0>#@<ee77r<,,<<<,5>=<<<<77<<e",
"0q7<4><>>**,<,<,r<1***<O@@<77<<<><<,>>*<<<><>>>>>>,<><47<g4ep5drrp5<##O*<er74=<>*,<<<<*,<>>>,<<<1dk<<#@77<>,<,7<7<6<,,>4<4<*7<57",
"7,<74r7<*>>,6<575<,1<><O@#477,,>>4,4<,>,<77,>>*:>:>,<7><<q7<77,75reu&@O,57de<*@&,,<*<*>77*,*><e7ye5<5O@7p7<<*<7,,,,<=,,<,<>*<,<7",
"<<<74pd>*#*<7<7e<0<<<e7OO#*77>,*<<>,,<7<*:,<>>:>>>>*>>>,<,<7p7pipei<###44r<<<&>>>*<,<7<e**>>>>7k,e5<7@@>e,7<<2e,<,>1<<,<,7>>>*><",
"<<4<44*<*>:07y<1e5e5,,<OO@<pe<,7<7<5<7yr7>,<,,>>>:*>>*><7rr77dgugpgr#@O<<r<&#:***><<<75<,<*<<7<<<<<0,@#<<1>7<7<<*>>,7<<7<5<>>><*",
">q<<>,<><>***,7<555e5,>@#@,i717<<,4ryrd7e>>5<<><>:<<<,075e777fg0rpeq@@o,,*>:*>,><,<74de*>,<<,*>,<<er>##*,<,=<,**,<>,107,<<<<>*>,",
",4<,,>,,<#::*<<>>7,<ir*o@@<<1e1<e5<e27e7<<<<56<4>>>><<<77errep7<<577@##>&*&:>:><7<<77<6:>re<,<=4=,<,>#@*,*>>,*<<>,,<<<>*><<*,>,<",
",5,7<,1<6>**<<><,q1<07e@##*5,57555qe<<<5,7<4><re<<><><<05<4r747:7,p7O#O*&*&,,7e744<<::>2::7<<,,=<,,<>@#*>>*>><,<>74e<<*,,=>,>,,*",
",<<<,,7<<>*>*,6>2<7pg7*OO#,7de<<<7<<q7e,>>,<7<4,>*>7e71757<7p<2<>e5<*Oo*#**<,5<7<47<:2,<<**,*#,,=,*7,@@*>>*&&<:<<<e7>*>>,,,=<><,",
"<<*,,4<7e,>>><,*<<<<,#*@OOOree7>:,26<<,,<,<<<<<>**>>,r5e<75<<<<><>*5,##*%=%<q7,e7<<>><<7<<<,**>**5<>2@O&&*:>><<<pp<1,*>,,,<<<*>,",
",7<5<<7<777<<>,e<q<24<&>ooo#6>#&:><5,***&,<<7<,>><,,<<5<755<6,<>#&***O#&*%**4<15<4,,>><,<e1<<<><&*>##o#>:&:*&>7<<504<<,<<4<<>**<",
",,4<<<<<57<1<><<2<<r<<#:oX&>*>><>><*7<*,47<7<<<<=<,,5<,,<r<<67>&&&**&#@<#%%<4557,*,>,>,<<<<<<4>>*<>#O#O>>>>:<>:><,5<,5<4*>&>,<,<",
",<,,5,<<<<r47<<557<<5,>*ooo*>,<>>>**><11<<5,<<<5,<7,<5<0<*<<<<:#&&>>#O+<<><r77e5<5,>>*<5<57e<<<**<>&#@@&>>*>>:>>><r<>7<<>>:<,7*>",
"><><7>>><2<<5<er<7<<<44&oo>*>,<<>,*<>,57<eu<7<,<7<75575<7<<,<7#>:>*>&@#*,*<<1e1<<<1<<,4<7<*,e>*:>>,:##O&>><<<>:*>,,,=,,5q>><e6<,",
">><>:><>>4<7e7,>6<**,<4+oo*><4<<<<,>><<&>,777<<*<0<<5<i7<e<<4+*>:<&<*&#>=*q<e761<,5e<<<4,,=,>>:&:<<<&#O&4,,*,<,<7,><<<<,4*::>>><",
"4>>::*>><<,<<<,,4<>><<&ooo#7,7<<<>*>,,,*>,17<<<e5<*<5777<<4,&&>>,<>>>#@<<,7k5r0pr75<<174*,,>>&&**,<**#o#:<=,<=,<<,*<>,<e*<>>:<7<",
"<5<><:**><<77<>7,7<6*>@Ooo*,<,6,<>,,><6>><<e<,555>,,77744>*>>,*>:<>7OO@*4715<<<7pq<1r<<>***<>>>*&>*>&OO#&><<<>*5<<,<,5,*:>>>><7q",
"*>&:>>>>,<6<7<<,,7*:>#O@ooo**<444*>>:2>*:<177r6<*,&<q7727<<>**::&22##OO&=ep07>*><6<<q<>*><**>&&&::>&OXoo&=%*>*>7,*&&:&>>:><<444<",
":>7>>>**>>**:&@*,*>*#o@OooOoO><6<<>>>*&&>*,>7><><0>>,4>*<<<<&>::**&OoOOO@%<<>,>>*>*>>>*>*,&*>*:&*>:#OooO&*&>*>>*:*>:&*&@>>:><7<<",
"#OoOooXOOOooooo@OoOOO#OO@#o@OOOooOOoOoOoOOOOOOOoooOOO@@oO@OOO@@OooOo#o@@###O###@@@#@@OooO###O#OooOoO#O##OOOooOoOoooooOoo#oOOO#@@",
"##@O#O#@@OO##@##@@oO@oO@O@&@@#&OO#OO+OOOO@O#O@@O@@@@OOO#@O@OoOOOOOOOOO@###@#####@#@#@##@@@@##O@OOOOO+OO#O@O+OoO#OOoooOOO+##O@@@#",
"@##h5esfe5eree<i05<pddk,5i7eeerfcppkkigcpfpepsippq*##@##<>q77dkeSkbdppgkkcngkppqr,*2<,<,<6<>*&#o@>dyppcpckk7,nge&:&*<**><r77r*##",
"##><4<7g5gfipperpep2cd5<r14pprpgppe7pcspp<2p7vsc7ge@##*preeikCke0ee7q1s0rczpe57r707eppu77rvMspqf5ksp7pekpippprei4*:>5<5e<eqggg*#",
"&#<<<,,>155<5,q0ep7<*>,*<<<7,*>:e00504<2>:<>77e50r7@##<575,>0e1esd<<7<4ppers<<*>,,<<<7r<5p0eie57<>>><>,<,<<<<f7f7>:,,geg1dsfei#@",
"#@<<,<<,,<<<<<<747>>*<<5<<<<7<><<7577<,<:<>74ieprufO@*<0u7q4epgMppe15rr74077<7<>>,*<<<p75077<7<5,><<<<>>*,5**5<<<<6*drnc<*,<;<@#",
"#@7<5r57,,<7<,<7e7,>*<775<,<<<<1,<57<77<><,<<p57rkrO#&rppcegfsi,<,r04*,<<7777r7<q74<e0p7755<><<<<><7<q*><>,*<e<<<74e0<><<<**5,@@",
"#>pr5*,,<<ey07<557*>7e4g7<<<q547<,,5<7eqd<<7p7p7eqe#Or<ekrkp77<<7,171,*,<<<,<<q<77>>><55eee<<,,<<<><4>*<4,=<>,i71,,<,<,>7<>*<i@@",
"@<rgr<<<,<5eqeer7*><r<q<,,<e4<<e5<>5<77dpq77rde<5r5O#2,pppgpep7r<,0u,*><*<*:>><<><<,<,7<7ir70<<7,<><:&&>,,<7<4,<q*<*<,>*><,,5rO@",
"@*<e<,,,*,<<7r<<<6<eq45<,<<e577p<4<,>,7<<76476<<<*7oO77il70prkee<,<,<5<=,<<,<*>,>4<,<>***>eeq<<<q<7<:<:<<><<;<<><<>::>:><<,<<4>@",
"O*<>,<<,,><<67<<<<<<r6,<<,7<pre7<>>*>><f*<<>>>:*::&O@<,7<><pe7q075,,,,,,<,4<<>>,><,<1<><><66<q<<6y7:**><7q<<7e<<><<::*<<7<<><e>#",
"@#<><<<2<5<6r7<<<,,4q77<<<<1<rf0>>,*>>q<<><,7*>**&OO#<<7,<e077<7,<e<<5<7<<7<<*,,,<<<0r77<<,747<7<eq>><<<475,5<5<>>>***><6>**<,*@",
"##7>4ee70<<77<>>,<<<6<<<5<<eq077<,*>>*>>>,7<,>>**+###,<*,,><,<<<><p74<<<<,,<***<7<<<<557e<<747<<<r7>*<<<q,<<<6e<>*<::><<>**>>,<@",
"##<<457<<7<77><><<<5<<<,<74477e,,>,<>*:*,70<4>,>*#&@@,*r,>*<7<7,*<4e75<<<>*>:>*<*1<<i<<<7,<<7*4<<75>>>6,<<*<4<,,:&>:><&*>>*,,<7#",
"@#><7ee<17777<2:*67p5<<e774,<,**<>,,**><554<><,7>&##@<,><**>>e>>,<<<e<***>>:**<<,00cvr,,,,<<,<<<e5<>>2><<<,,,6<<7,<6<>:>><<<<<<@",
"O#<<*<7<,<5e<><<*<q4r7<eedp5>**>,<<,<<<5,*<,<,47q7>O@*>*5,>*>1*<,<<,4<3>,><>>,<75ipeer,<=,<<5,>,<<::<<,,5<,,,><557r62<<><<5,,,>O",
"O<<<**7<<,*<><>&*6><,<77dpps7157557<<5e1<<<qee<,,g1O@&>>,<<><>>,<<<,r,><:&:<<<<<epf7q<*,<<q&re1<,>>>*,,7<,,7,>,>7f74<<<>><75<,<O",
"Or>2<2<55<,,g4><>>*<<<7qeiepe<77517e7e7q7,<eeer77de@#**<*<<<4>,,<<,<<*>&>>&><3,<pde577<<>,0*,7<<>,<<,,6<<>,,q<<,<r5<q<<<,<<4<7oO",
"@e<<5,,7<1,=<*4q>><74<<<41pd1<<7<r7pe<<<7<<p7i<fps7@@*>,<,<,<><7<q<>*#&*<&*2<rreie7<<<>><,<*4<,,*>7>,<6441<,e,>4<<><<7,<<<<5<<oO",
"#<2,4,77<75;;==>7>><,><><5ed5<50d7s5e<*<<<,gppe70k7###*><<>><<<,<=*>>**::&><<7rrpdde<,,,,,,&<<<7*7<6,<17<,,@<>,*,*><><,5,<,<>6#@",
"@*><<77<<5e<<,%$&>>,>>>*>7rp0i<<5gu5**><75<,47<710&##@**<>>,<<><<<<<,>>::::*>y47<774r><<,,**<<7e52<*<<qr7,#&<<,<7<,<<&*,<<,,66@@",
"#@><<<><<<<<<=%%*>*>*><crsser7e04r<>,*<<<4<<45,75,<@#@&>,,<>>>,,<<,>><*>>2>>qy,*>>*<**><**>><4<7qr6<<6r<&**<6<<**<<<q&<<>,*><>&@",
"#+O@<<<,ed7>%*%%%>&>*<qer5eeep<<4<74>**6>><7757r,*>oO#*<7<><><<*>6<>>:<<><>e7>>>>**>><>><>>><*&*>4,>,><**><,7<<<7<rer&>74>r6,*@O",
"##O#&>*><,<>#&&@oO&,&<<>>&<q4q<<,<<>>*>*><>><<<>**OOo@O<<<>>6>>,,<*><<66>7,<>**>**,,*>><><7><2<<<>>*:>**><<*O#*7<<><#&*<*&#&&O##",
"+#O@#O@O@#ooooOoOOOO@@OOOoOOOooOOOOOOOO@@O###@oOOOO###@#OOOO@OOOOooOO#&@O@@o@@@OO##@###O###@##O#@#OOOOOooooOooOOoooOO@##@O#@###@",
"O&#@@O@@@OoO#@#@@@o@O@@##@OO@OO@O##@#O@o@#&@@OO#OOoO#@##@#O@@@#O@#@&@O#@OOOO@#OooO@@#####@O#@##o##O@O@O+O+#O+O@OO@@OO+@##Oo#O#&#",
"7e7p7<4<,ee777545r757fpek,O#@o#cpe0<7sefkeee7p77<see<7p<eni05pk7ieufuc7OOOO705svkcsz0757<<<1rr75<>7q<eyryp55,<OO@O,<<<pippe7e7pe",
"epeguee7dspie3,5pr5<7kF<70CO@orMpigiCnFBggcCvnrkkvp*7e7r0Ckg0cgvvNbAMPs,oO*e7Ncsgdgppge<,<<eeipg0zspskNSecn5<eOOO755sgMmJbg,<1<<",
"ip505,7<<<*,,<>>6<e7p7per<eOO*sv,<<,,>><<eu5<17e5,*>><<7pp77<77ek<<>,<**OO,he*<,,e,<,,<1<6<r<17g77<1<6<7pe,>,>@O@1<7<reqpg><>>*<",
"g<e5<7<<<,><><>27<pg7egepeeOO,gC<<<<<>**<71pp51<<<<><rdeppe77,<7p,,,,<<*##<7<<7,51<<4<,<<r<76<e77e<5744<<557<>O##7q<,,e75<<,e74<",
"<<r7<<<,<<<<,3,qr7g<<egf7ggOO>ep7<5>,>>:<7ee75<>&:>rrrgr5r6<<<<<<,<<53>*OO><<,51,<,75,<,,<<6,<745e,<,4ee57<<<>#O#qe55ge47<<<7<<<",
",<<<7<<q7<<*<7<r0r76<<p77ppoO*,<77<<>><>,<0,e17<**<<7pgpr<4<,>,<<<<<>,>&#O<,,,5<<>,<<<1<,,<<7ie7r757q<77e5<,<<O@#0>74e54<7772<<<",
"<,<7<5<<52<<,77ri<<6<4<4<<eO@*>7<,<,<>>,<,*>,5<,*<<<1pppg<*,>**<<<ee4<*7#O,<1<<<47<<<75*<,4551<7qq777er7,<17<<&@#0p7<,<ppe747r<<",
"e<7<qq<<>,><7<7req<<>7<<<74O#>,<,74*><<<<&*rrry>><<>,777p,,<<,,<<41<<<e<#O3<557<<<<r<<<1<,<1<<626<76<r7ye<5<><O@@*4557&><r<4e<<7",
"7<<<<7<<7>4<<<774<7,<<6*<<q##,<>,<<,,7<,<>1<qre4><4>,,,<75<,<re7<ee1,,y<##e<544<7<,<<<e<<<,<<5*<<><<2<<ry7>,>*@##7<7e<>>:>>><,7r",
"514*,><5*<>>***>,,<<<,>><<r@+:*>&@p<<,<<<<q4<,<7<<><<<5<5<1<77<7,><<<re7#O<7<574<>>,<7r<5<,,<,<<<>>><>>7p5,<><@@@,7e<<,*>,<*&<61",
"4<,*,7<7<<>*<,,&<<<<<>*&>7<OO>*<**&#,,7<<7<<4er57<q<p<775e<<<7<<r<5*7r*&O#*&*><<>,><<e<7<-<7,,,<<>>>><><77<*>,Oo@,*5<5<*>>**>2,q",
"<<><<,7<<>>*<4<,<<6r<,&<dq7&+#&*rp4*,<<7<<7<4<>,7e77<<rg<7<,<<7p5e15<**#@#>>><<<<<><<e<4,<<<,,,,<<,>2<,p<,**,>OOO<<d<1<>*>>***><",
"e<,,5<&>>:::>7>777q4*<>>4,<#+##<yrp0*<5re<,<<*>>5r<>p<404<<<77<ee5<****&@#,,<,,,<7**<<e,7e<<<<<q<,7<e*<eq>>><,Ooo<ep557<,:>**,<<",
"<<7<q4<:>*>>*<<5qiy<4*,*<0*#@O*<q<77*,4<<42*>><<,*<<,<<<,,,7e<epp7,>>&>,#@:6<e<<<,,,<,7,e>7<51,<,<<<575r5<*<<<&Oo<e05<<,>*>:><,<",
"q<4747<>>,>>:*&>yppgq>>,,<,O@O*7777<<<,>><7>*<<:2,<e0<<,,<;7<>7qe<1<><<7@#>>4,<<<,7<<<<,,<e7,<<7<,577<ep44,<>&#OO<<<<><<>*>,4<7<",
"7q76<6<76<:<>>**><,<6<*>>,>@#<<ip><5<<>:><<<>2>,,<,<6<<,,<,,<*><<75e<<>,OO,<>667<<7<<7<>>,<<7<4<*><<,,577<**=*&o@**,,>7<*<<5<7<<",
"77,,6>77>>>2><><<>,>&>>*>7<OO<,*<<<67,<*<6<>>,<r5,,<<<<,<<,,<5>=<<,54<e>##,<<q2677p26<,54<,qr<<<<<>,>*<<6<>>*&#OO><#<7<7e77,<<><",
"752<er<><><<><<<,<>><>>>>,=OO@*><4<55<2>>:>>>7<7<77<75<<7,=<574,*,,<75ee@@>><<>,q7<>><77q:>67r777>*#*,e76>**%&+OO<<,<p75p7r<<<76",
"5q3,r5><<6<>>>77<7><>>>:>r*ooO><76<5,<<2::**>,527<6756475<>r<7r4>,,,<,>,OO<<,<qpy6><<<<,>,<77re<4<>><7<<*****&Oo#<<5>>r*><>>*<<,",
"5<<7<*<*4<,<6<e7<7&6<>2<><>oo+*<>77e>><<>:*:>*,><<7<7<<5<<<e57r<<,<<><*<OO&*<<erq66<qp5>>>*7764:>>>6<r<*><>>*&O+o*<<,>&>:<,*>7<>",
"<7<,,2<r7r>>7<<,,<>*><>>:<OooO:47>>,<rr<>:&&:&@#**>,<7<,7,7rre<1<,><<<<*Ooo%$=<767p<r664<<<*7r<>>*>><77<<=*>&$@Oo&:<<>&#>><q7<<,",
"**&+#&>6>>*#&&>,>>*<@><:>@ oOOO*o&&<,>&::>:oO#@#&&&**,<<**&7e742<<##>&&OoOo@%,=<<<*<>2601771,>*>>>:#<&**>>#Ooo#@OO#>*<###:*5<<*,",
"###&##O#O#OoOOOOOOOO#O@O@@OOoOO@OoO#OOOO#OoO@O#O@#@#O#@OO#ooOOOoo@OOOOO@@O#&#OOO@OoOOOOOooO@oOOOO+OOOOoOoooOoooooOOoOOOooo##@OOO",
"##&##OO@#OOOO#OOOO#O#@O#O#O#o##@#&O#&#@#OO@OO#@O@OOOO@@@@oo@@OO@O@###@@OOOOoOoO@@O@@ooooO@O@O#+@#@OOOOOoooooooOOOOOOoOOoOOOOOOo@",
"##:*5gede6,,<,7e4747ir,7ee55e7r<*><747<772rp55gis7<g00fe<###O&re7707<<e<p5<**><,<7gp<r40eppssssBp7i<O@OO#>><6e7,,<,eeu5<4*=75p#@",
"##<,pe7rrp0<74<kCkq>,<5Mp<e<*57d*<sf7fep0<0pFkCnpf<pkkvc4<#@#50e7r<7gccnCg7<,>rbpPbvnC>47gc1*<MZFFveo@o*<<icgcbge<<5<7>q7,1ses@@",
"O+<Cb,,77<<e<epc><<<<><<<p7,,>*>>><<7e<peerg7dp<7p47<755v5O@*<qg**>><<<,<<<e,77ei<=,,>**>*,<<<<07<4,*Oo><e<7<<<,<5<,,>***><r1pO#",
"##ee,>775<<r05e,,<6,<<77<<,<<>>>&,<<57<7<<,5<1e75,p<p<7e55@@<*>*,<6<,7577,<77rd05,<,**><,<<,,5<77r,>>o#<4<<,,<7<,6<>>*>>*<5<7<o@",
"&*<<,<>,>,*<<><<<6<<<<4e75<<,,,,,,,>,e<><>,1&,<i7e,<<<psr0#O<*<1070127e<5<,p5p71*>,**>,=775q77<<77,**O*<*e<&,,*4<5<<<<<>>,<<<*O#",
"O>r5<>>>,,*>=:*>><,<<,r<77>,**,<<***,,<,,77**>>>,<<<*<0pgg#@,,<1r77e5<<15,11<7e<*,**>*>,,6<<7q<<<<<<eO*&#,&<<,<7<**&:*>,*>,*,,O#",
"#<77<>*,>>>*<>,><76<,<,7y0*<<<,,<45<,>>,>7*&>>>,>>>>*<<r75@#,0pee7<7<,<<<<75u7<*&*>>*><<<<<477<,<1r<7O**<><re<<<<,>*&*,*,**>,<o#",
"#,<5<<*,<,*,,,<<<<*6><<<<e75<4,<<<*:*>><,,<*>**><>,*<<*:7pO#57<<e555<<<<7,5<<,,=*>>>>>5<<47<<<<*5<<7,@@*>>,<>>>>*>*&&>,,<e<,<<##",
"@<<,4<<,<,,,<><1,<><><<<<<,><*,<*:><><*<<<>7<<,,,<<,<**4e<@O<<=15<,,<,,,,,,7e<***>*,>><4<6<<,<,,,7<,#OO**,7<<<<,<>*&&*>*4<7<7*@O",
"@&*e,<<,<4<75<,<,><,<>6,,<>7,7<,<>,>*,>,,>,ge7<3<e47<>>#&>##5<<,,<<<,<<<>,<e<>&#*>,>,,<<<<<74<,<>*,>#@O*>7<r:>><><<&*>>,,<><><@@",
"&&*54,,,<<5<,>*>>,<>>><*,,=,5ie<,<<<,<4<>4,e<775<7q7=**&&>O#t<7<<,<<<,<,,,**>:>&*&>,>>7e4<,<<6<>&><*&O@>>q>,<*<*,<7>,<<<>>*>><OO",
"#**:<<>77*,,#>**><<<<,,<,<<,<576766<<,<<<:ye<,<qee<,<*>&#&O#<<q<,,,<,,5,6:>:>:>>:&>&<**<4,<745,<><7g@O#**<>><,><,<<q5<,<&***<6o#",
"O&*>r*<re<<>>**><<<<><2<<<<<,7<>>&<<><>4<<<<5<<5<<<4<4<*&#OO*>44<<>><5<7i<><>><2<>&*>&&*<<,<><5,7<1<#OO>*>7::>><<<66<*<**,<<5*O@",
"O##*&#+>55,>>>><><<<>,<5<><<*1,&&*<6e7<<6<p74>5e7<<6,<4,>*O#>*#*,=<,>7<0pk<><<<<>>>*&&&**>,<>6<,<,<*#OO>,ez,<>>><<<<<<7#*<,,<,O#",
"#>*&&**>&>>,>>,,*>>74<<<<4,<7<>*:6777q67<7d7qe1,,,<<6e7<2*@#,,6*##***<<e<76<>><>><>>>**&*,,<,547<,*>*OO><ge7*<<><<<<<,&><<,*,<o#",
"#&>:><>4*#&<<,,4,><5777,<5<,70<<,<<<<7<5<pp<r,,><<7<e<<,=<+@77:*,#>>*>**<72>>><,>:<,<<*<:2441<7<,>>*&OO><gry><<775<2<*6<<<<467o#",
"@><<7<>*<*:O,,<,**,r,<<><<<<<470<4><,<e7q>75<<>*,,<e<<>,<<o#<7774**,>*>,<<>>><<<<<<<,<*67<e<,7<,,>**,#@<<7e7,>>27757q<><<<<<,roO",
"#>e><6>***>:<5<e<,,<<<<,<5<7<<<1<6<><<7<5><7g6,,,,<<<><>,<OO,r077qi<2<<<>*<><<<><7,7>,,<<<7<q<*<>><>>OO><ie<**>7<1<<>>,77<77q<oo",
"O:r<<<>*>>>q>&**<>>*>:O*<7e7>555<7757<7e<,,4<7>7,ep<<<<7<,oO5e0rpi<<>*>&<<<2><,<><r<,,,<,77<<><,>,**>#o><,6*:&>67<<7<<,><><<<<oO",
"&&2,<6<*><,<>&&*<>>>>:*75,<<<q5i<,<r7<<r<<,<4<,0pge7444<>OOO<5p<e0<<*&>r,,<<7><>><<,<,<<707e<<y<:>,*<@@#>,#&&<6247<,><4<7>:>7eX#",
"@@*r7q><<<<<>&&&<*>>>:***><<>4r7,77<r7,72>,477<4r5<7<<7,&*OOO>*<,6<>*<7e<r7<,4<>*>**><54<<7<r<77<>,<*OO:*&&#*>**,<<<<<057<45<5@@",
"#@#*,*#>&>#*&:#OoO#&##>><<<<>*<<>>:<<@@#><2<><<7<>2>&&>oO@OoO#*><<<,*>&&@#*><><<<>>&#>><<:*,>>,><>*@Oo@@#&&+#::><<><>>:#*,<,*@O#",
"#@#OOOOOOOO#OOO#OOoO+OO@OOO@@O#@O+@@O@#@O##O@@#@#OOO@oOoo@@O@@O@oOOOO@oO#@#@##+OOO@OO#OO#+@O@OoOooOO@O@@O#@#Oo#@@+o@&@OO#OO@OO#@",
"@@#@OoO#O@##+OOOOO@Oo@OOO#@O@OOOOOO#O##oO#O&#@@@@@@OOOo@O@@Oo#OO#@@O@####@O+O#+O@@##@#@@@OO@#@#O@@@O@Oo@O&@#####O##@O@###O#+#&@#",
"rp05e;<<<<175<5107gggr<7r7ree7cksgpiree07<<1pg5,*:O@@@77<77p5i<0rrpgip,<>*=7<c>###@*7e<<7e0ere5><,<%===%%***,<<<<<<5<<7,eq5<5<,1",
"kMgsurp7<<<5pfg5ziqr705077p7idre>q<,*<<,>7,,>4r06>@#&scggMgi7reepvCi0<>,,<>5ig<<*@O<pb5cgperepe<,4e==<*<=,<<,<rf<hc<pp,*r<7e0pee",
"r7<7744<,7<0k77e<p<,<5<7<77pegi7<<>,4>**,<<>&&,>:*O@*<,,><77priie76,<576,4777577=o#ep7<<>><77457<q55see<<<5q><<<<<<<,,>*<,50pee<",
"77,<<4<,,6<<,,<<<7<<<,,<-7707gg<<<<,<,><>><7#*>*>*@@*<,,,<40<05e1q<777e6<<4<<77<>OO5p,>*>*<<,7<<p,eeyp7<,4<44705<><,<><<70ee7<<<",
"<5,e<767<*,,<64<,707<><<*,5e7<<<77>>,>,2<<><&*>&**@#<<,,>7ie7771750perqr7<7<<<*,>O#<e<>>>>*><<<r7*q<77p,7<<q7<,r,57<,<45ee5<<<<;",
"q<e<0<71<,,,,*>>,*<<<74,>*<67<rir4<><>:*<&****#>**@#**5<7<7,<007e<50e07e<,<<<<6<*#O>*><>>>>>><77<7<<<4e<<<,1r<*,*<<,,,<4,<4,7<<4",
",7<<<,4<,<=,<<<>,,,,4<<,*><,r2>>72>>>>*&#&#>*&***&@##><3<5>,,<55,,,><<42><<4<>*<>OO&<<,><><>>2r0<<<<<7<5<776e,&>><<e>,7<<,<<<,<<"
};
